# xmcd CD database file generated by Grip 3.2.0
# 
# Track frame offsets:
#       150
#       14250
#       29819
#       48450
#       65348
#       92932
#       115919
#       135995
#       162811
#       180973
#       197473
# 
# Disc length: 2954 seconds
# 
# Revision: 1
# Processed by: cddbd v1.5.2PL0 Copyright (c) Steve Scherf et al.
# Submitted via: Grip 3.2.0
# 
DISCID=8a0b880b
DTITLE=MonkeyJunk - Tiger In Your Tank
DYEAR=2009
DGENRE=Blues
TTITLE0=I Wanna Put A Tiger In Your Tank
TTITLE1=Small Time Evil
TTITLE2=Give Me Time
TTITLE3=If You Were Mine
TTITLE4=When Push Comes To Shove
TTITLE5=Beefy
TTITLE6=Pay The Cost
TTITLE7=Boogie Man
TTITLE8=Leave The Rest To You
TTITLE9=Blues For Anna
TTITLE10=Gutsy
EXTD=YEAR: 2009
EXTT0=
EXTT1=
EXTT2=
EXTT3=
EXTT4=
EXTT5=
EXTT6=
EXTT7=
EXTT8=
EXTT9=
EXTT10=
PLAYORDER=
